<?xml version="1.0" standalone="no"?>
<!DOCTYPE svg PUBLIC "-//W3C//DTD SVG 20010904//EN"
 "http://www.w3.org/TR/2001/REC-SVG-20010904/DTD/svg10.dtd">
<svg version="1.0" xmlns="http://www.w3.org/2000/svg"
 width="498.000000pt" height="498.000000pt" viewBox="0 0 498.000000 498.000000"
 preserveAspectRatio="xMidYMid meet">
<metadata>
Created by potrace 1.14, written by Peter Selinger 2001-2017
</metadata>
<g transform="translate(0.000000,498.000000) scale(0.100000,-0.100000)"
fill="#000000" stroke="none">
<path d="M2309 4976 c-2 -2 -35 -7 -74 -10 -68 -6 -92 -9 -165 -22 -19 -4 -44
-8 -55 -9 -81 -11 -373 -99 -470 -141 -22 -10 -42 -18 -45 -19 -3 0 -49 -22
-102 -48 -101 -49 -218 -117 -300 -174 -27 -18 -72 -49 -100 -70 -29 -20 -61
-45 -71 -56 -9 -11 -17 -17 -17 -14 0 12 -201 -182 -281 -269 -97 -106 -269
-347 -301 -421 -7 -16 -16 -30 -20 -33 -10 -8 -108 -217 -135 -290 -13 -36
-28 -74 -33 -85 -11 -23 -67 -217 -74 -258 -3 -15 -7 -35 -10 -45 -6 -18 -13
-56 -22 -112 -3 -19 -7 -46 -10 -60 -31 -183 -24 -605 12 -774 3 -11 9 -43 14
-71 23 -126 86 -329 147 -475 39 -92 139 -287 166 -324 4 -6 29 -45 55 -86
100 -155 270 -349 434 -495 204 -182 481 -348 748 -450 80 -30 189 -65 200
-63 3 0 23 -7 44 -16 22 -9 41 -14 44 -12 2 3 15 1 28 -4 14 -6 36 -12 51 -15
15 -2 49 -9 77 -15 52 -10 74 -13 186 -27 83 -10 403 -10 495 -1 39 4 92 10
119 13 27 2 56 7 65 9 9 3 32 8 51 11 19 3 55 11 80 16 25 6 56 13 69 15 13 3
32 9 43 15 10 5 18 7 18 5 0 -6 213 67 270 92 259 113 456 233 662 404 47 39
251 238 244 238 -2 0 8 13 22 28 41 43 83 95 127 157 22 31 48 66 57 77 10 11
20 29 23 39 4 11 11 19 16 19 5 0 9 5 9 11 0 6 9 23 19 38 29 40 133 245 170
334 79 193 121 342 166 602 27 159 27 548 0 710 -3 17 -8 46 -11 65 -4 19 -8
44 -10 55 -1 11 -5 29 -8 40 -2 11 -12 52 -21 90 -9 39 -23 90 -32 115 -8 25
-16 52 -18 60 -21 98 -225 525 -257 538 -4 2 -8 8 -8 13 0 10 -72 117 -114
171 -12 14 -28 35 -36 46 -95 123 -268 297 -395 396 -27 22 -53 44 -57 50 -5
7 -8 7 -8 1 0 -6 -3 -6 -8 0 -25 36 -251 175 -400 246 -140 68 -346 145 -432
163 -14 3 -53 12 -87 20 -34 9 -77 18 -95 21 -18 3 -40 8 -48 10 -8 3 -40 7
-70 10 -30 3 -66 8 -80 11 -28 6 -445 15 -451 10z"/>
</g>
</svg>
